<svg width="21" height="21" viewBox="0 0 21 21" fill="none" xmlns="http://www.w3.org/2000/svg">
<path d="M1.25 14.1717C0.532561 14.5859 0.286748 15.5033 0.700962 16.2207C1.11518 16.9381 2.03256 17.184 2.75 16.7697L1.25 14.1717ZM20.7694 5.85893C20.9838 5.05873 20.5089 4.23623 19.7087 4.02181L6.66874 0.527757C5.86854 0.313344 5.04603 0.788218 4.83162 1.58842C4.61721 2.38862 5.09208 3.21112 5.89228 3.42554L17.4834 6.53136L14.3776 18.1225C14.1631 18.9227 14.638 19.7452 15.4382 19.9596C16.2384 20.174 17.0609 19.6991 17.2753 18.8989L20.7694 5.85893ZM2.75 16.7697L20.0705 6.76974L18.5705 4.17167L1.25 14.1717L2.75 16.7697Z" fill="black"/>
</svg>
