<svg width="125" height="48" viewBox="0 0 125 48" fill="none" xmlns="http://www.w3.org/2000/svg">
<g clip-path="url(#clip0_315_647)">
<path fill-rule="evenodd" clip-rule="evenodd" d="M76.8891 37.8069C69.7091 42.4973 59.3021 44.9998 50.3419 44.9998C37.7783 44.9998 26.4677 40.8814 17.9109 34.0316C17.2386 33.493 17.841 32.7589 18.6477 33.1784C27.8822 37.9403 39.3003 40.8051 51.0949 40.8051C59.0494 40.8051 67.7998 39.3465 75.8457 36.3196C77.0612 35.862 78.0777 37.0251 76.8891 37.8069Z" fill="#FF9900"/>
<path fill-rule="evenodd" clip-rule="evenodd" d="M79.8741 34.78C78.9598 33.7409 73.8075 34.2891 71.4948 34.5322C70.7903 34.6084 70.6827 34.065 71.3173 33.6741C75.4209 31.1144 82.1545 31.8533 82.9397 32.7113C83.725 33.574 82.7354 39.5563 78.8792 42.4115C78.2875 42.8501 77.7228 42.6165 77.9864 42.035C78.8523 40.1187 80.7938 35.8239 79.8741 34.78Z" fill="#FF9900"/>
<path fill-rule="evenodd" clip-rule="evenodd" d="M71.6565 15.6036V13.1154C71.6565 12.7388 71.9792 12.4862 72.3665 12.4862H84.9355C85.3389 12.4862 85.6616 12.7436 85.6616 13.1154V15.2461C85.6562 15.6036 85.3173 16.0708 84.715 16.8096L78.2019 25.0513C80.6221 24.9988 83.1768 25.3182 85.3711 26.4145C85.8659 26.6624 86.0004 27.0247 86.038 27.3822V30.0373C86.038 30.3995 85.5863 30.8238 85.113 30.6045C81.246 28.8074 76.1097 28.612 71.834 30.6236C71.3984 30.8333 70.9412 30.4138 70.9412 30.0516V27.53C70.9412 27.1248 70.9466 26.4336 71.4037 25.8187L78.9495 16.2281H72.3826C71.9792 16.2281 71.6565 15.9754 71.6565 15.6036Z" fill="black"/>
<path fill-rule="evenodd" clip-rule="evenodd" d="M25.8067 31.1289H21.9827C21.617 31.105 21.3266 30.8619 21.2997 30.5521V13.1583C21.2997 12.8104 21.6277 12.5339 22.0365 12.5339H25.6023C25.9734 12.5482 26.2692 12.8008 26.2961 13.1154V15.3892H26.366C27.2964 13.1917 29.0444 12.1669 31.4001 12.1669C33.7934 12.1669 35.2886 13.1917 36.3642 15.3892C37.2893 13.1917 39.3922 12.1669 41.6457 12.1669C43.2484 12.1669 45.0017 12.7532 46.072 14.0688C47.2821 15.5322 47.0347 17.6581 47.0347 19.5219L47.0294 30.4997C47.0294 30.8476 46.7013 31.1289 46.2925 31.1289H42.4739C42.0921 31.105 41.7855 30.8333 41.7855 30.4997V21.2808C41.7855 20.5468 41.8608 18.7163 41.678 18.0204C41.3929 16.8526 40.5378 16.5236 39.4298 16.5236C38.5048 16.5236 37.5367 17.0718 37.1441 17.9489C36.7515 18.826 36.7891 20.2941 36.7891 21.2808V30.4997C36.7891 30.8476 36.461 31.1289 36.0523 31.1289H32.2337C31.8465 31.105 31.5453 30.8333 31.5453 30.4997L31.5399 21.2808C31.5399 19.3408 31.9003 16.4855 29.1842 16.4855C26.4359 16.4855 26.5435 19.2693 26.5435 21.2808V30.4997C26.5435 30.8476 26.2154 31.1289 25.8067 31.1289Z" fill="black"/>
<path fill-rule="evenodd" clip-rule="evenodd" d="M96.4825 12.1669C102.157 12.1669 105.228 16.4855 105.228 21.9768C105.228 27.2821 101.834 31.4911 96.4825 31.4911C90.9106 31.4911 87.8773 27.1725 87.8773 21.7909C87.8773 16.3759 90.9483 12.1669 96.4825 12.1669ZM96.5148 15.7181C93.6966 15.7181 93.5191 19.1215 93.5191 21.2427C93.5191 23.3686 93.4814 27.9066 96.4825 27.9066C99.4459 27.9066 99.5858 24.2457 99.5858 22.0149C99.5858 20.5468 99.5159 18.7926 99.0157 17.4007C98.5854 16.19 97.7303 15.7181 96.5148 15.7181Z" fill="black"/>
<path fill-rule="evenodd" clip-rule="evenodd" d="M112.585 31.1289H108.777C108.396 31.105 108.089 30.8333 108.089 30.4997L108.084 13.1011C108.116 12.7818 108.433 12.5339 108.82 12.5339H112.365C112.698 12.5482 112.972 12.7484 113.048 13.0201V15.6799H113.118C114.188 13.3013 115.688 12.1669 118.329 12.1669C120.045 12.1669 121.718 12.715 122.793 14.2166C123.794 15.6084 123.794 17.9489 123.794 19.6315V30.5807C123.751 30.8858 123.433 31.1289 123.057 31.1289H119.222C118.872 31.105 118.582 30.8762 118.544 30.5807V21.1331C118.544 19.2311 118.792 16.4474 116.151 16.4474C115.221 16.4474 114.365 17.0003 113.941 17.8393C113.403 18.9022 113.333 19.9605 113.333 21.1331V30.4997C113.327 30.8476 112.994 31.1289 112.585 31.1289Z" fill="black"/>
<path fill-rule="evenodd" clip-rule="evenodd" d="M61.6368 22.8204C61.6368 24.1408 61.6745 25.2419 60.9215 26.4146C60.3138 27.3679 59.3457 27.9542 58.2754 27.9542C56.8071 27.9542 55.9466 26.9627 55.9466 25.4993C55.9466 22.6107 58.867 22.0864 61.6368 22.0864V22.8204ZM65.493 31.0812C65.2403 31.2814 64.8745 31.2957 64.5895 31.1622C63.3202 30.2279 63.089 29.7942 62.3952 28.9028C60.2976 30.7999 58.8078 31.3672 56.0918 31.3672C52.8702 31.3672 50.3693 29.6083 50.3693 26.0857C50.3693 23.3353 52.0474 21.4619 54.4461 20.5467C56.5221 19.7364 59.421 19.5934 61.6368 19.3693V18.9308C61.6368 18.1252 61.7067 17.1719 61.1689 16.476C60.7064 15.8515 59.8136 15.5941 59.023 15.5941C57.5655 15.5941 56.2693 16.2567 55.952 17.6295C55.8874 17.9346 55.6347 18.2349 55.2851 18.2492L51.5794 17.8964C51.2675 17.8345 50.9179 17.6104 51.0093 17.1862C51.8591 13.2012 55.9251 12 59.5608 12C61.4217 12 63.8527 12.4385 65.3209 13.6874C67.1818 15.2271 67.0043 17.2815 67.0043 19.5171V24.7986C67.0043 26.386 67.7465 27.0819 68.4457 27.9399C68.6877 28.245 68.7415 28.612 68.4296 28.8408C67.6497 29.4176 66.2621 30.4901 65.4984 31.0907L65.493 31.0812Z" fill="black"/>
<path fill-rule="evenodd" clip-rule="evenodd" d="M11.5058 22.8204C11.5058 24.1408 11.5434 25.2419 10.7905 26.4145C10.1827 27.3679 9.22 27.9542 8.14434 27.9542C6.67607 27.9542 5.82093 26.9627 5.82093 25.4993C5.82093 22.6107 8.74133 22.0864 11.5058 22.0864V22.8204ZM15.362 31.0812C15.1092 31.2814 14.7435 31.2957 14.4584 31.1622C13.1892 30.2279 12.9633 29.7941 12.2641 28.9028C10.1666 30.7999 8.68218 31.3672 5.96076 31.3672C2.74455 31.3672 0.238281 29.6082 0.238281 26.0856C0.238281 23.3352 1.92168 21.4619 4.31501 20.5467C6.39103 19.7364 9.28992 19.5934 11.5058 19.3693V18.9308C11.5058 18.1252 11.5757 17.1719 11.0432 16.4759C10.5753 15.8515 9.68253 15.5941 8.8973 15.5941C7.43979 15.5941 6.13825 16.2567 5.82093 17.6295C5.75639 17.9346 5.50361 18.2349 5.1594 18.2492L1.44839 17.8964C1.13645 17.8345 0.792243 17.6104 0.878295 17.1862C1.73344 13.2012 5.79404 12 9.42976 12C11.2906 12 13.7216 12.4385 15.1899 13.6874C17.0508 15.2271 16.8733 17.2815 16.8733 19.5171V24.7986C16.8733 26.3859 17.6155 27.0819 18.3147 27.9399C18.5621 28.245 18.6158 28.612 18.3039 28.8408C17.5241 29.4176 16.1365 30.4901 15.3727 31.0907L15.362 31.0812Z" fill="black"/>
</g>
<defs>
<clipPath id="clip0_315_647">
<rect width="124.113" height="48" fill="white" transform="translate(0.238281)"/>
</clipPath>
</defs>
</svg>
