<svg width="127" height="48" viewBox="0 0 127 48" fill="none" xmlns="http://www.w3.org/2000/svg">
<g clip-path="url(#clip0_315_648)">
<path fill-rule="evenodd" clip-rule="evenodd" d="M125.811 30.5633C120.555 38.4606 112.232 36.1691 109.732 34.3749C108.668 35.0147 106.803 36.417 104.315 36.255C99.0177 35.9104 97.1206 29.2007 97.1206 29.2007C97.1587 29.2275 95.5425 29.6949 94.6691 29.6866C94.6579 31.6542 92.7388 36.3546 87.5594 36.2945C81.7475 36.2273 80.5659 28.5531 80.5659 28.5531C80.5659 28.5531 79.9876 29.2649 77.7885 29.9739C77.8992 28.4622 77.8182 36.0644 70.8524 36.1761C65.3454 36.2646 63.8589 28.4348 63.8589 28.4348C63.8589 28.4348 62.9035 29.3143 61.0521 29.6194C61.1697 28.0831 60.9784 36.2019 54.0117 36.1761C49.3037 36.1588 47.6949 31.353 47.82 30.686C47.9797 29.8359 46.2289 36.2957 41.6557 36.195C39.7686 36.1459 38.3616 34.9349 37.4788 33.3204C36.2969 34.5189 34.581 36.195 32.6561 36.195C29.2008 36.195 27.6775 33.6337 27.9355 26.3179C27.9575 25.4502 27.8868 25.109 26.9136 24.9792C26.3294 24.8928 25.7312 24.7292 25.0982 24.643C24.8954 25.243 23.1747 35.9998 17.2578 36.204C15.2728 36.2725 14.1874 34.7485 13.296 33.6174C11.9297 35.2194 10.126 36.255 7.55642 36.255C3.20383 36.255 0.238281 33.1365 0.238281 29.2895C0.238281 25.4425 3.20383 22.3242 7.55642 22.3242C8.326 22.3242 8.54204 22.422 9.2451 22.6038C7.79924 10.9365 11.2138 9.11303 14.2008 9.11303C17.0685 9.11303 21.9676 15.012 15.0741 29.9751C16.6046 34.4381 19.904 34.1857 21.4895 24.9982C21.8122 23.1307 20.9494 20.6105 22.2915 20.2588C24.7448 19.616 25.0051 21.5446 26.1554 21.866C27.3717 22.2056 28.0816 22.1724 29.2492 22.3885C31.2445 22.7339 32.0231 23.6838 31.78 25.7996C31.4881 28.4767 30.9774 32.3732 32.5344 32.8481C33.6572 33.1931 35.7072 31.1293 36.067 30.0001C36.4266 28.871 36.5017 28.4845 36.5337 27.6563C36.5823 25.8861 36.6434 24.5886 36.984 23.2499C37.1297 22.7319 37.2959 22.3888 37.9572 22.3654C38.5013 22.3531 39.4963 22.2079 39.9344 22.51C40.5182 22.8988 40.4452 23.2933 40.3782 24.3316C39.6992 39.1353 44.9252 31.7452 46.4834 25.8279C45.9285 19.1369 46.3095 9.23555 51.0403 9.06949C53.5007 8.98313 54.5885 10.7301 54.7081 12.034C55.0465 15.7168 53.1509 21.8172 50.6579 25.9197C49.2331 34.2907 56.8875 35.9459 58.1116 29.2642C56.1089 28.4202 53.9446 25.0044 55.7058 23.3397C56.6941 22.4055 60.8078 23.7476 60.8752 26.6748C62.8931 26.1965 63.1625 25.1867 63.1905 25.354C62.6358 18.663 63.1502 9.23564 67.8814 9.06957C70.3415 8.98321 71.4291 10.7301 71.5487 12.0341C71.8871 15.7168 69.9915 21.8173 67.4988 25.9199C66.0739 34.2907 73.7285 35.946 74.9522 29.2643C73.4695 29.0107 70.3395 25.3775 72.1455 23.3398C73.1106 22.2509 77.2093 24.5154 77.6681 26.7717C79.6066 26.2855 79.8699 25.3078 79.8977 25.4724C79.3428 18.7816 79.8573 9.35422 84.5885 9.18815C87.0486 9.10179 88.1362 10.8487 88.2558 12.1527C88.5942 15.8354 86.6986 21.936 84.2056 26.0385C82.7809 34.4095 90.4354 36.0644 91.6595 29.3827C89.6219 29.082 86.7261 25.2458 89.0567 23.2833C89.9879 22.4992 93.546 24.5346 94.3789 26.8568C95.5361 26.8173 96.2564 26.4636 96.4108 26.4279C94.5634 18.573 95.9387 9.14836 101.028 9.06969C103.779 9.02721 106.468 10.3877 105.288 17.8606C104.161 24.9906 100.111 27.9827 100.12 28.0285C100.356 28.8827 102.434 36.0312 107.668 32.2594C107.397 31.7157 107.126 31.1603 106.974 30.4874C106.107 26.5677 107.811 22.1404 112.442 21.4249C115.095 21.0149 117.594 22.1598 117.99 24.741C118.64 28.9645 114.337 32.0233 112.7 32.6868C111.967 32.3178 119.344 36.5107 123.722 28.108C123.975 27.6282 124.281 27.6689 124.678 27.9162C124.958 28.0908 126.553 29.4299 125.811 30.5633ZM10.7225 28.2517C10.4998 27.6615 10.0427 26.361 9.88104 25.7976C8.9908 25.1114 8.35538 25 7.21268 25C4.67325 25 3.17858 27.0809 3.17858 29.3247C3.17858 31.5684 4.80691 33.6496 7.34636 33.6496C9.54708 33.6496 11.222 32.3235 11.733 30.4462C11.3754 29.7143 11.0205 29.0417 10.7225 28.2517ZM14.1386 12.2015C12.3542 12.2015 11.7489 15.974 11.8664 19.1924C11.9703 22.0378 12.8674 24.5428 13.3328 25.6653C13.4509 25.8059 13.429 25.7144 13.5345 25.8636C16.6327 19.8472 15.3476 12.2015 14.1386 12.2015ZM51.2952 12.32C48.989 12.0855 49.0039 20.6001 49.2902 22.51C50.4879 20.8118 52.5686 12.7772 51.2952 12.32ZM68.1358 12.32C65.8296 12.0855 65.8445 20.6001 66.1309 22.51C67.3286 20.8118 69.4093 12.7772 68.1358 12.32ZM84.843 12.4384C82.5367 12.204 82.5516 20.7186 82.838 22.6287C84.0356 20.9303 86.1164 12.8956 84.843 12.4384ZM101.283 11.8215C97.6895 12.461 98.5262 23.0789 99.072 24.9412C103.304 19.789 103.392 11.628 101.283 11.8215ZM114.749 25.0903C114.566 24.4133 113.653 24.0515 113.022 24.1407C111.218 24.359 109.468 26.3505 110.146 29.3824C110.296 30.0576 110.674 30.6792 110.668 30.6585C114.705 28.2577 115.048 26.3659 114.749 25.0903ZM38.6644 20.0218C38.1488 20.0219 37.6447 19.8864 37.216 19.6326C36.7872 19.3787 36.4529 19.0179 36.2555 18.5957C36.0581 18.1735 36.0064 17.7089 36.1071 17.2607C36.2075 16.8124 36.4559 16.4007 36.8205 16.0775C37.185 15.7543 37.6495 15.5342 38.1553 15.4451C38.661 15.3559 39.1852 15.4016 39.6616 15.5765C40.1381 15.7514 40.5452 16.0476 40.8316 16.4276C41.1181 16.8076 41.271 17.2544 41.271 17.7114C41.271 18.0148 41.2036 18.3152 41.0726 18.5955C40.9417 18.8758 40.7497 19.1305 40.5076 19.345C40.2655 19.5596 39.9782 19.7298 39.662 19.8459C39.3457 19.962 39.0068 20.0218 38.6644 20.0218Z" fill="#0D0C22"/>
</g>
<defs>
<clipPath id="clip0_315_648">
<rect width="126.369" height="48" fill="white" transform="translate(0.238281)"/>
</clipPath>
</defs>
</svg>
